# xmcd CD database file
#
# Track frame offsets:
#	150
#	20460
#	38922
#	78977
#	102390
#	128960
#	181990
#
# Disc length: 4440 seconds
#
# Revision: 2
# Processed by: cddbd v1.5.1PL0 Copyright (c) Steve Scherf et al.
# Submitted via: CDex 1.51
#
DISCID=53115607
DTITLE=Thad Jones , Mel Lewis  Jazz Orchestra - Central Park North
DYEAR=2004
DGENRE=Jazz
TTITLE0=Tow Away Zone
TTITLE1=Quietude
TTITLE2=Jive Samba
TTITLE3=The Groove Merchant
TTITLE4=Big Dipper
TTITLE5=Central Park North
TTITLE6=i don`t no the title
EXTD=YEAR: 2004
EXTT0=
EXTT1=
EXTT2=
EXTT3=
EXTT4=
EXTT5=
EXTT6=
PLAYORDER=
